<svg
  viewBox="134.3 415.3 210.7 210.5"
  fill="none"
  xmlns="http://www.w3.org/2000/svg"
>
  <g id="Folder 6">
    <path fill="#195983" d="m310.47 478.45c-0.01 9.51-7.73 17.22-17.24 17.22h-13.05c-9.52 0-17.23-7.71-17.23-17.22 0-9.52 7.71-17.23 17.23-17.23h13.05c9.51 0 17.23 7.71 17.24 17.23z"/>
    <path fill="#195983" d="m288.45 495.64v-17.19h22.02v17.19z"/>
  </g>
  <g id="Folder 1">
    <path fill="#efc317" d="m310.51 521.18h17.19v22.02h-17.19z"/>
    <path fill="#efc317" d="m327.7 543.2c-9.51-0.01-17.22-7.73-17.23-17.24v-13.05c0-9.52 7.72-17.23 17.23-17.23 9.52 0 17.23 7.71 17.23 17.23v13.05c-0.01 9.51-7.71 17.23-17.23 17.24z"/>
  </g>
  <g id="Folder 5">
    <path fill="#3186c2" d="m241.24 449.73v-17.19h22.02v17.19z"/>
    <path fill="#3186c2" d="m263.56 432.54c-0.01 9.51-7.72 17.22-17.24 17.23h-13.05c-9.51 0-17.23-7.71-17.23-17.23 0-9.52 7.72-17.23 17.23-17.23h13.05c9.52 0.01 17.23 7.72 17.24 17.23z"/>
    <path fill="#3186c2" d="m241.55 449.73v-17.19h22.02v17.19z"/>
  </g>
  <g id="Folder 2">
    <path fill="#dc8d2f" d="m215.42 608.56c0.01-9.52 7.72-17.22 17.24-17.23h13.05c9.51 0 17.23 7.71 17.23 17.23 0 9.51-7.72 17.23-17.23 17.23h-13.05c-9.52-0.01-17.23-7.72-17.24-17.23z"/>
    <path fill="#dc8d2f" d="m237.43 591.37v17.19h-22.02v-17.19z"/>
  </g>
  <g id="Folder 4">
    <path fill="#5dba66" d="m151.56 497.9c9.51 0.01 17.22 7.72 17.23 17.24v13.05c0 9.52-7.72 17.23-17.23 17.23-9.52 0-17.23-7.71-17.23-17.23v-13.05c0.01-9.52 7.71-17.23 17.23-17.24z"/>
    <path fill="#5dba66" d="m168.75 519.91h-17.19v-22.02h17.19z"/>
  </g>
  <g id="Folder 3">
    <path fill="#c0d35f" d="m168.79 562.65c0.02-9.51 7.73-17.22 17.24-17.23h13.05c9.52 0 17.23 7.72 17.23 17.23 0 9.52-7.71 17.23-17.23 17.23h-13.05c-9.51 0-17.22-7.71-17.24-17.23z"/>
    <path fill="#c0d35f" d="m190.81 545.46v17.19h-22.02v-17.19z"/>
  </g>
  <g>
    <path fill="#efb167" d="m310.47 543.2v29.64l-30.59 0.27v-29.63z"/>
    <path fill="#efb167" d="m280.17 591.02c-9.51-0.18-17.08-8.02-16.93-17.53l0.23-13.05c0.17-9.52 8.02-17.1 17.53-16.93 9.51 0.17 17.09 8.01 16.93 17.53l-0.23 13.05c-0.18 9.51-8.02 17.09-17.53 16.93z"/>
    <path fill="#efb167" d="m263.59 559.21l18.26-0.01-0.65 31.8-18.26 0.01z"/>
  </g>
  <g id="Folder 8 copy">
    <path fill="#40c2c1" d="m198.81 450.08c9.51 0.18 17.08 8.07 16.91 17.64l-0.24 13.13c-0.18 9.58-8.03 17.2-17.55 17.03-9.51-0.16-17.08-8.06-16.9-17.63l0.24-13.13c0.18-9.57 8.03-17.2 17.54-17.04z"/>
    <path fill="#40c2c1" d="m215.62 472.37l-17.19-0.3 0.38-22.01 17.19 0.3z"/>
    <path fill="#40c2c1" d="m168.71 497.88v-29.63l28.39 0.01v29.63z"/>
    <path id="Layer copy" fill="#40c2c1" d="m198.1 468.26v29.63h-28.59v-29.63z"/>
  </g>
</svg>
